<svg xmlns="http://www.w3.org/2000/svg" width="24" height="24" viewBox="0 0 12.30675 8.23452" class="feather feather-github"><title>behance</title><path d="M271.825,330.192a1.2,1.2,0,0,0-1.20486,1.19512q-0.00023.05652,0.00486,0.11288h2.472a1.2,1.2,0,0,0-1.272-1.308h0Zm-6.324,1.332h-1.476v2.328h1.2c1.2,0,1.728-.396,1.728-1.2s-0.552-1.128-1.452-1.128h0Zm1.044-2.136a0.99485,0.99485,0,0,0-1.14-1.02h-1.38v2.088h1.02C266.113,330.456,266.545,330.072,266.545,329.388Z" transform="translate(-262.363 -327.054)" fill="none" stroke="#fafafa" stroke-linecap="round" stroke-linejoin="round" stroke-width="0.3"/><path d="M265.753,335.004h-3.24v-7.8h3.24c1.404,0,2.328.732,2.328,1.92a1.68,1.68,0,0,1-1.344,1.716,1.824,1.824,0,0,1,1.78124,1.86578q-0.00119.05117-.00524,0.10222C268.513,334.2,267.313,335.004,265.753,335.004Zm4.26-7.2h3.6v0.6h-3.6v-0.6Zm4.5,4.62h-3.96v0.168a1.284,1.284,0,0,0,1.308,1.428,1.08,1.08,0,0,0,1.2-.756h1.452a2.4,2.4,0,0,1-2.604,1.86,2.58,2.58,0,0,1-2.832-2.76v-0.528a2.72359,2.72359,0,1,1,5.436.024v0.564Z" transform="translate(-262.363 -327.054)" fill="none" stroke="#fafafa" stroke-linecap="round" stroke-linejoin="round" stroke-width="0.3"/></svg>