<svg xmlns="http://www.w3.org/2000/svg" viewBox="0 0 24 15.10261"><title>behance</title><path d="M26.97941,24.44006a7.3258,7.3258,0,0,1,1.92071.21546,4.22463,4.22463,0,0,1,1.49594.58483,2.46245,2.46245,0,0,1,.96036,1.12042,4.24772,4.24772,0,0,1,.32012,1.70525,2.97649,2.97649,0,0,1-.53558,1.86531A3.97819,3.97819,0,0,1,29.645,31.16256a3.57056,3.57056,0,0,1,2.02537,1.38513A4.16452,4.16452,0,0,1,32.366,34.887a4.24773,4.24773,0,0,1-.42477,1.92071,3.57056,3.57056,0,0,1-1.16967,1.33588,5.2943,5.2943,0,0,1-1.70525.73874,8.24924,8.24924,0,0,1-1.92071.26471H20.00451v-14.707h6.9749Zm-0.43093,5.97145a2.41025,2.41025,0,0,0,1.44054-.43093,1.54791,1.54791,0,0,0,.53558-1.33588,2.03153,2.03153,0,0,0-.16006-0.8557,1.51425,1.51425,0,0,0-.48018-0.53558,2.67593,2.67593,0,0,0-.69564-0.26471,4.64912,4.64912,0,0,0-.86186-0.06156H23.24879V30.393Zm0.1539,6.31a4.74021,4.74021,0,0,0,.905-0.10465,1.90841,1.90841,0,0,0,1.27432-.905,2.56827,2.56827,0,0,0,.21546-0.96036,2.10328,2.10328,0,0,0-.64024-1.66216,2.82454,2.82454,0,0,0-1.70525-.48018h-3.509v4.10614ZM37.0016,36.66a2.59486,2.59486,0,0,0,1.92071.64024,2.83181,2.83181,0,0,0,1.539-.43093,2.09308,2.09308,0,0,0,.8003-0.96036H43.878a5.19524,5.19524,0,0,1-1.92071,2.77026,5.70167,5.70167,0,0,1-3.09654.86186,6.27928,6.27928,0,0,1-2.29624-.42477,4.24773,4.24773,0,0,1-1.70525-1.17582,4.1246,4.1246,0,0,1-1.065-1.76065,7.09463,7.09463,0,0,1-.00616-4.53707,5.66365,5.66365,0,0,1,1.12042-1.81606,5.41739,5.41739,0,0,1,1.70525-1.17582,6.033,6.033,0,0,1,2.24083-.43093,4.96535,4.96535,0,0,1,2.40089.53558A4.38834,4.38834,0,0,1,42.91764,30.196a6.46394,6.46394,0,0,1,.96036,2.02537,11.1262,11.1262,0,0,1,.10465,2.33933H36.26286a3.07806,3.07806,0,0,0,.73874,2.08077V36.66Zm3.36125-5.60208a2.32812,2.32812,0,0,0-1.66216-.58483,2.489,2.489,0,0,0-1.16967.26471,2.74635,2.74635,0,0,0-.73874.58483,1.47747,1.47747,0,0,0-.36937.73874,3.89757,3.89757,0,0,0-.10465.69564h4.80179a2.83182,2.83182,0,0,0-.751-1.69909H40.36285Zm-4.67866-5.60208h5.97145v1.44054H35.68418V25.45582Z" transform="translate(-20.00451 -24.43851)" fill="#fff" stroke-width="0.2"/></svg>